<svg width="340" height="137" viewBox="0 0 340 137" fill="none" xmlns="http://www.w3.org/2000/svg">
<path d="M97.31 98.74C90 84.1 95.43 63.88 108.31 58.74C123.31 52.81 125.92 79.31 145.7 82.67C165.48 86.03 175.62 73.26 180.7 56.96C183.86 46.81 180.5 22.96 194.15 22.96C204.43 22.96 204.63 37.2 199.49 46.83C193.87 57.36 193.1 74.02 197.91 79.73C202.72 85.44 212.84 71.62 223.22 72.68C233.6 73.74 228.37 95.34 232.32 99.2C236.27 103.06 217 121.46 171.65 124.91C140 127.32 109.74 123.62 97.31 98.74Z" fill="#FF7440"/>
<path opacity="0.5" d="M97.31 98.74C90 84.1 95.43 63.88 108.31 58.74C123.31 52.81 125.92 79.31 145.7 82.67C165.48 86.03 175.62 73.26 180.7 56.96C183.86 46.81 180.5 22.96 194.15 22.96C204.43 22.96 204.63 37.2 199.49 46.83C193.87 57.36 193.1 74.02 197.91 79.73C202.72 85.44 212.84 71.62 223.22 72.68C233.6 73.74 228.37 95.34 232.32 99.2C236.27 103.06 217 121.46 171.65 124.91C140 127.32 109.74 123.62 97.31 98.74Z" fill="white"/>
<path opacity="0.2" d="M196.37 24.76C194.46 21.49 188.46 24.69 187.08 30.36C185.7 36.03 199.74 30.49 196.37 24.76Z" fill="white"/>
<path opacity="0.2" d="M99.52 82.16C98.86 77.7 100.02 68.53 105.52 63.09C112.37 56.34 120.19 58.61 125.52 71.09C125.52 71.09 118.93 59.88 112.76 61.52C107.04 63.04 101.46 69.17 102.86 82.52C103.6 89.24 100.18 86.67 99.52 82.16Z" fill="white"/>
<path opacity="0.2" d="M228.42 84.1C228.42 84.1 228.15 75.76 222.75 74.26C217.35 72.76 206.4 80.67 206.4 80.67C206.4 80.67 215.47 74.51 220.24 75C225.01 75.49 224.88 86.34 226.52 86.6C228.16 86.86 228.56 85.51 228.42 84.1Z" fill="white"/>
<path d="M98.79 91.62C98.79 91.62 108.98 97.29 112.46 96.1C115.94 94.91 116.64 84.44 127.14 83.97C137.64 83.5 150.48 93.2 156.14 93.46C161.8 93.72 172.36 77.13 182.78 80.35C193.2 83.57 193.33 89.64 198.87 89.24C204.41 88.84 208.59 82.81 214.43 85.15C220.27 87.49 227 102.83 207.85 111C188.7 119.17 117.25 121.56 98.79 91.62Z" fill="#FF7440"/>
<path opacity="0.4" d="M98.79 91.62C98.79 91.62 108.98 97.29 112.46 96.1C115.94 94.91 116.64 84.44 127.14 83.97C137.64 83.5 150.48 93.2 156.14 93.46C161.8 93.72 172.36 77.13 182.78 80.35C193.2 83.57 193.33 89.64 198.87 89.24C204.41 88.84 208.59 82.81 214.43 85.15C220.27 87.49 227 102.83 207.85 111C188.7 119.17 117.25 121.56 98.79 91.62Z" fill="white"/>
<path d="M42.75 123.62C42.75 123.62 46.75 111.91 58.31 113.62C69.87 115.33 69.52 119.62 73.08 115.09C76.64 110.56 80.2 110.9 92.59 113.44C104.98 115.98 133.43 120.11 177.78 118.72C222.13 117.33 250.14 108.03 256.69 108.19C263.24 108.35 258.75 112.03 262.18 113.88C265.61 115.73 271.67 108.16 279.58 121.44C287.49 134.72 152.73 134.7 152.73 134.7C152.73 134.7 46.7 133.34 42.75 123.62Z" fill="#FF7440"/>
<path opacity="0.5" d="M42.75 123.62C42.75 123.62 46.75 111.91 58.31 113.62C69.87 115.33 69.52 119.62 73.08 115.09C76.64 110.56 80.2 110.9 92.59 113.44C104.98 115.98 133.43 120.11 177.78 118.72C222.13 117.33 250.14 108.03 256.69 108.19C263.24 108.35 258.75 112.03 262.18 113.88C265.61 115.73 271.67 108.16 279.58 121.44C287.49 134.72 152.73 134.7 152.73 134.7C152.73 134.7 46.7 133.34 42.75 123.62Z" fill="white"/>
<path opacity="0.2" d="M51.78 116C55.33 113.53 65.03 116.34 69.38 119C73.73 121.66 81.25 123.51 81.25 123.51C81.25 123.51 76.8 126.99 69.38 121.51C61.96 116.03 51.78 116 51.78 116Z" fill="white"/>
<path opacity="0.2" d="M76.5701 115C77.7796 114.074 79.2668 113.584 80.7901 113.61C82.3041 113.585 83.8154 113.746 85.2901 114.09C88.2531 114.755 91.1009 115.858 93.7401 117.36C98.6629 120.667 104.125 123.09 109.88 124.52C112.747 125.224 115.661 125.718 118.6 126C121.539 126.26 124.492 126.33 127.44 126.21C130.44 126.07 133.38 125.91 136.34 125.61L145.25 124.67C148.25 124.39 151.25 124.19 154.3 124.18C157.35 124.17 160.3 124.3 163.3 124.57C164.81 124.69 166.3 124.88 167.8 125.04L172.26 125.63L181.13 127C187.051 127.868 193.018 128.379 199 128.53C204.968 128.802 210.946 128.338 216.8 127.15C213.929 128.026 210.978 128.615 207.99 128.91C205.01 129.25 202.01 129.45 198.99 129.51C192.974 129.587 186.96 129.253 180.99 128.51C169.13 126.87 157.3 125.21 145.48 126.62C139.56 127.22 133.55 127.92 127.53 128.06C121.465 128.265 115.402 127.592 109.53 126.06C106.596 125.272 103.743 124.207 101.01 122.88C99.6501 122.22 98.3201 121.48 97.0101 120.7C95.7001 119.92 94.4701 119.04 93.2501 118.23C90.755 116.643 88.039 115.433 85.1901 114.64C83.7662 114.236 82.2991 114.005 80.8201 113.95C79.325 113.804 77.825 114.174 76.5701 115Z" fill="white"/>
<path opacity="0.2" d="M271.23 114.66C270.61 112.59 263.43 115.05 262.23 116.44C261.03 117.83 271.91 116.93 271.23 114.66Z" fill="white"/>
<path opacity="0.2" d="M257.4 109.12C259.31 108.12 256.6 113.65 253.84 113.06C251.08 112.47 252.25 111.71 254.43 111.11C256.61 110.51 256.1 109.81 257.4 109.12Z" fill="white"/>
<path d="M63.6701 41.9C74.8101 30.72 83.7701 61.18 91.1401 75C100.76 93 113.5 104.85 123.74 99.22C133.98 93.59 125 60 138.21 57.55C151.42 55.1 145.06 91.21 161.42 94.55C177.78 97.89 182.51 65.92 194.12 66.55C205.73 67.18 199.92 89.1 205.72 94.55C211.52 100 249.5 63.71 252.14 37.55C254.78 11.39 271.66 20.26 269.55 32.16C267.44 44.06 244.76 65.31 238.95 82.38C233.14 99.45 264.27 82.54 276.4 88.89C288.53 95.24 239.85 124.97 173.21 124.97C106.57 124.97 64.3601 109.6 60.1401 99.22C55.9201 88.84 89.7801 104.46 91.2601 96.76C94.3601 80.6 53.5601 52.05 63.6701 41.9Z" fill="#FF7440"/>
<path opacity="0.6" d="M241 114.32C219.1 121.39 196.223 124.964 173.21 124.91C138.21 124.91 109.9 120.68 90.3401 115.16C72.6901 110.16 62.1401 104.16 60.1401 99.22C55.9201 88.85 89.7801 104.46 91.2601 96.76C94.3601 80.6 53.5601 52.05 63.6701 41.9C74.8101 30.72 83.7701 61.18 91.1401 75C100.76 93 113.5 104.85 123.74 99.22C133.98 93.59 125 60 138.21 57.55C151.42 55.1 145.06 91.21 161.42 94.55C177.78 97.89 182.51 65.92 194.12 66.55C205.73 67.18 199.92 89.1 205.72 94.55C211.52 100 249.5 63.71 252.14 37.55C254.78 11.39 271.66 20.26 269.55 32.16C267.44 44.06 244.76 65.31 238.95 82.38C233.14 99.45 264.27 82.54 276.4 88.89C283.76 92.68 268.78 105.11 241 114.32Z" fill="white"/>
<path opacity="0.2" d="M67.8001 103.62C67.2978 103.022 66.8368 102.39 66.4201 101.73C66.2129 101.395 66.0483 101.036 65.9301 100.66C65.854 100.463 65.8315 100.248 65.8649 100.039C65.8982 99.8304 65.9863 99.634 66.1201 99.47C66.4336 99.19 66.8308 99.0213 67.2501 98.99C67.6409 98.9351 68.0357 98.915 68.4301 98.93C69.2143 98.9677 69.9956 99.0512 70.7701 99.18C73.8348 99.767 76.8658 100.518 79.8501 101.43C82.7701 102.32 85.8501 103 88.7401 102.29C92.8901 101.29 93.6901 97.5 94.8601 94C95.2301 92.91 96.2101 91.81 97.3501 92C97.8516 92.1326 98.3077 92.3987 98.6701 92.77C100.67 94.46 102.1 96.59 104.29 97.92C106.906 99.6178 109.617 101.164 112.41 102.55C115.092 103.829 118.019 104.511 120.99 104.55C122.459 104.545 123.923 104.367 125.35 104.02C126.703 103.698 127.965 103.073 129.04 102.19C131.19 100.43 132.43 97.68 133.32 94.83C133.77 93.4 134.15 91.91 134.55 90.4C134.93 88.8166 135.442 87.2678 136.08 85.77C136.454 84.9111 136.983 84.1281 137.64 83.46C138.419 82.6943 139.442 82.227 140.53 82.14C141.578 82.0585 142.626 82.303 143.53 82.84C144.318 83.3163 145.027 83.9136 145.63 84.61C146.688 85.8693 147.626 87.2253 148.43 88.66L150.74 92.72C152.159 95.36 153.869 97.8321 155.84 100.09C157.684 102.216 160.187 103.663 162.95 104.2C165.693 104.583 168.476 103.864 170.69 102.2C173.114 100.473 175.32 98.458 177.26 96.2C179.33 93.93 181.31 91.53 183.68 89.29C184.914 88.0737 186.348 87.0791 187.92 86.35C188.83 85.962 189.811 85.7711 190.8 85.79C191.946 85.8018 193.049 86.2321 193.9 87C194.645 87.7417 195.168 88.6769 195.41 89.7C195.623 90.5427 195.76 91.4028 195.82 92.27C195.94 93.91 195.93 95.47 195.98 96.99C195.989 98.4313 196.16 99.867 196.49 101.27C196.6 101.845 196.827 102.392 197.157 102.875C197.488 103.359 197.914 103.769 198.41 104.08C200.33 105.28 203.25 104 205.79 102.56C208.388 100.983 210.874 99.2292 213.23 97.31C215.64 95.4 218 93.4 220.4 91.41C222.795 89.3573 225.306 87.4441 227.92 85.68C228.628 85.2228 229.37 84.8216 230.14 84.48C230.58 84.2932 231.04 84.1557 231.51 84.07C232.13 83.9392 232.776 84.0129 233.35 84.28C233.831 84.5232 234.256 84.8626 234.601 85.2772C234.945 85.6917 235.2 86.1727 235.35 86.69C235.565 87.6143 235.565 88.5757 235.35 89.5C235.02 91.15 234.47 92.6 234.35 93.94C234.266 94.5059 234.353 95.0839 234.6 95.6C234.874 96.0495 235.305 96.3809 235.81 96.53C237.213 96.775 238.647 96.775 240.05 96.53C241.55 96.33 243.05 96.05 244.58 95.74C247.58 95.12 250.58 94.4 253.65 93.74C256.72 93.08 259.74 92.43 262.83 91.94C264.37 91.7 265.93 91.5 267.5 91.4C269.088 91.2588 270.688 91.3227 272.26 91.59C273.076 91.7274 273.857 92.0229 274.56 92.46C274.762 92.591 274.936 92.7611 275.072 92.9603C275.208 93.1595 275.302 93.3838 275.35 93.62C275.404 94.0827 275.294 94.5495 275.04 94.94C274.083 96.2226 272.875 97.2977 271.49 98.1C268.836 99.732 266.061 101.159 263.19 102.37C265.97 101.023 268.644 99.4685 271.19 97.72C272.473 96.9149 273.584 95.8649 274.46 94.63C274.622 94.3595 274.692 94.0437 274.66 93.73C274.577 93.441 274.383 93.1965 274.12 93.05C273.489 92.6891 272.792 92.4579 272.07 92.37C270.566 92.18 269.044 92.18 267.54 92.37C260.75 93.08 254.14 95.7 247.94 98.48C243.18 100.62 237.86 102.48 232.83 101.08C232.189 100.932 231.588 100.646 231.07 100.24C229.49 98.85 229.95 96.04 228.35 94.68C226.75 93.32 224.66 94.16 222.93 94.99C217.2 97.77 212.49 101.77 207.09 104.99C205.667 105.872 204.138 106.571 202.54 107.07C201.653 107.34 200.727 107.465 199.8 107.44C198.808 107.381 197.84 107.112 196.96 106.65C196.073 106.176 195.317 105.488 194.76 104.65C193.29 102.48 193.07 99.65 191.54 97.38C191.311 97.0014 191.02 96.6634 190.68 96.38C190.15 96.0172 189.531 95.8062 188.89 95.77C185.46 95.4 182.16 97.19 179.43 99.32C175.7 102.24 172.36 105.69 167.63 106.97C165.92 107.441 164.128 107.53 162.38 107.23C160.672 106.926 159.034 106.309 157.55 105.41C157.55 104.94 153.77 102.54 153.22 102.06C151.6 100.62 150.15 98.95 148.64 97.38C148.211 96.9112 147.747 96.4765 147.25 96.08C144.45 93.98 141.64 94.97 139.58 97.39C138.33 98.86 137.32 100.53 136.03 101.97C129.6 109.13 119.41 108.18 111.53 104.38C105.94 101.68 97.3801 91.89 94.3401 102.21C93.9301 103.63 93.3401 105.13 91.9701 105.79C90.8068 106.229 89.5318 106.274 88.3401 105.92C85.1392 105.251 82.0037 104.301 78.9701 103.08L76.4901 102.16C73.9201 101.16 71.0901 99.52 68.3401 99.37C67.6067 99.2264 66.8461 99.3544 66.2001 99.73C66.0818 99.8644 66.0017 100.028 65.9683 100.204C65.9349 100.38 65.9493 100.562 66.0101 100.73C66.1089 101.1 66.2534 101.456 66.4401 101.79C66.8533 102.429 67.3076 103.04 67.8001 103.62Z" fill="white"/>
<path opacity="0.2" d="M72.15 61.55C72.15 61.55 61.27 48.48 64.64 43.55C68.01 38.62 74.73 42.97 76.31 48.31C77.89 53.65 71.9 52.98 70.15 52.72C68.4 52.46 72.15 61.55 72.15 61.55Z" fill="white"/>
<path opacity="0.2" d="M141.19 60C140.09 56.32 134.26 60.79 133.87 65.34C133.48 69.89 143.36 67.29 141.19 60Z" fill="white"/>
<path opacity="0.2" d="M137.68 72.7C137.39 71.03 141.27 70.2 142.52 72.7C143.77 75.2 138.58 77.88 137.68 72.7Z" fill="white"/>
<path opacity="0.2" d="M261.45 22C265.36 20.95 267.19 26.94 263.45 31.69C259.71 36.44 257.71 25.53 257.12 26.83C256.53 28.13 253.76 33.27 253.76 37.83C253.74 37.81 253.34 24.16 261.45 22Z" fill="white"/>
<path d="M241 114.32C219.1 121.39 196.223 124.964 173.21 124.91C138.21 124.91 109.9 120.68 90.3401 115.16C93.5301 115.55 97.0301 115.59 99.4501 114.56C104.99 112.19 108.95 112.56 114.09 116.14C119.23 119.72 128.33 122.23 138.62 121.46C148.91 120.69 146.53 116.34 158.62 118.32C170.71 120.3 169.16 123.65 183.38 123.62C197.6 123.59 205.38 117.15 214.06 115.36C221.39 113.84 224.35 118.77 241 114.32Z" fill="#FF7440"/>
<path opacity="0.5" d="M241 114.32C219.1 121.39 196.223 124.964 173.21 124.91C138.21 124.91 109.9 120.68 90.3401 115.16C93.5301 115.55 97.0301 115.59 99.4501 114.56C104.99 112.19 108.95 112.56 114.09 116.14C119.23 119.72 128.33 122.23 138.62 121.46C148.91 120.69 146.53 116.34 158.62 118.32C170.71 120.3 169.16 123.65 183.38 123.62C197.6 123.59 205.38 117.15 214.06 115.36C221.39 113.84 224.35 118.77 241 114.32Z" fill="white"/>
<path d="M295.18 122.83C293.7 122.45 292.428 121.502 291.641 120.193C290.853 118.883 290.612 117.316 290.97 115.83C291.57 113.53 291.2 111.5 285.65 111.15C280.1 110.8 275.83 114.25 271.75 117.04C268.37 119.36 265.07 121.22 261.12 120.04C255.12 118.29 253.49 114.17 248.47 112.14C246.472 111.374 244.35 110.984 242.21 110.99C241.039 110.972 239.867 111.016 238.7 111.12C224.55 112.37 210.75 128.12 188.33 130.23C165.91 132.34 138.48 128.39 117.65 123.86C96.82 119.33 90 123.92 81 126C74.61 127.5 61.72 124.33 51.36 120.75C47.7202 119.52 44.1455 118.105 40.65 116.51C31.01 111.99 27.2 115.19 26.73 118.46C26.26 121.73 33.63 125.23 23.55 128.51L23.38 128.57L22.68 128.78C8.52 133.12 0 136.24 0 136.24H339.19C339.19 136.24 321.69 129.9 295.18 122.83Z" fill="#FF7440"/>
<path opacity="0.7" d="M295.18 122.83C293.7 122.45 292.428 121.502 291.641 120.193C290.853 118.883 290.612 117.316 290.97 115.83C291.57 113.53 291.2 111.5 285.65 111.15C280.1 110.8 275.83 114.25 271.75 117.04C268.37 119.36 265.07 121.22 261.12 120.04C255.12 118.29 253.49 114.17 248.47 112.14C246.472 111.374 244.35 110.984 242.21 110.99C241.039 110.972 239.867 111.016 238.7 111.12C224.55 112.37 210.75 128.12 188.33 130.23C165.91 132.34 138.48 128.39 117.65 123.86C96.82 119.33 90 123.92 81 126C74.61 127.5 61.72 124.33 51.36 120.75C47.7202 119.52 44.1455 118.105 40.65 116.51C31.01 111.99 27.2 115.19 26.73 118.46C26.26 121.73 33.63 125.23 23.55 128.51L23.38 128.57L22.68 128.78C8.52 133.12 0 136.24 0 136.24H339.19C339.19 136.24 321.69 129.9 295.18 122.83Z" fill="white"/>
<path opacity="0.5" d="M28.9 119.57C28.855 119.238 28.8798 118.9 28.9728 118.578C29.0658 118.256 29.2249 117.957 29.44 117.7C29.9468 117.213 30.6086 116.919 31.31 116.87C32.6557 116.774 34.008 116.906 35.31 117.26C37.8296 117.948 40.2698 118.9 42.59 120.1C44.85 121.16 47.22 122.1 49.59 122.95C51.96 123.8 54.36 124.65 56.78 125.4C61.6 126.83 66.52 128.26 71.32 128.65C73.7668 128.825 76.2231 128.825 78.67 128.65C81.1081 128.436 83.5235 128.015 85.89 127.39C90.71 126.17 95.79 124.52 101.14 124.08C106.387 123.84 111.646 124.175 116.82 125.08C127.03 126.62 136.95 129.16 146.95 131.38C141.82 131.12 136.73 130.38 131.65 129.82C126.57 129.26 121.5 128.57 116.45 128.08C113.92 127.84 111.45 127.68 108.89 127.57C106.429 127.437 103.962 127.491 101.51 127.73C99.0686 128.08 96.6483 128.564 94.26 129.18C91.84 129.8 89.42 130.57 86.87 131.18C84.2795 131.839 81.6359 132.267 78.97 132.46C76.3034 132.635 73.6267 132.578 70.97 132.29C68.3288 131.967 65.7173 131.435 63.16 130.7C60.64 130.01 58.16 129.19 55.75 128.29C50.8609 126.572 46.116 124.469 41.56 122C40.4 121.35 39.41 120.68 38.29 120.08C37.1957 119.471 36.0634 118.933 34.9 118.47C33.7758 117.97 32.5759 117.663 31.35 117.56C30.7616 117.511 30.173 117.651 29.67 117.96C29.439 118.162 29.2517 118.409 29.1193 118.686C28.9869 118.963 28.9123 119.263 28.9 119.57Z" fill="white"/>
<path opacity="0.5" d="M185.16 133.15C189.776 132.673 194.334 131.745 198.77 130.38C200.98 129.74 203.18 129.04 205.34 128.25C206.43 127.87 207.51 127.49 208.58 127.06C209.65 126.63 210.72 126.23 211.78 125.77C216.014 124.007 220.144 122.004 224.15 119.77C228.15 117.52 232.62 115.11 237.62 114.3C240.163 113.848 242.769 113.882 245.3 114.4C247.835 114.954 250.222 116.045 252.3 117.6C252.81 117.97 253.3 118.37 253.78 118.78L255.07 119.9C255.877 120.565 256.748 121.148 257.67 121.64C258.578 122.145 259.55 122.525 260.56 122.77C261.56 123.04 262.594 123.161 263.63 123.13C265.76 123.1 267.839 122.473 269.63 121.32C270.5 120.75 271.49 120 272.44 119.32C273.39 118.64 274.44 117.97 275.44 117.32C277.454 116.058 279.617 115.05 281.88 114.32C283.012 113.955 284.184 113.726 285.37 113.64C286.552 113.516 287.746 113.695 288.84 114.16C287.725 113.848 286.55 113.817 285.42 114.07C284.298 114.288 283.202 114.623 282.15 115.07C280.061 116.012 278.086 117.186 276.26 118.57C275.34 119.25 274.44 119.96 273.57 120.7C272.7 121.44 271.88 122.2 270.89 123.03C268.872 124.624 266.446 125.619 263.89 125.9C262.595 126.027 261.29 125.973 260.01 125.74C258.735 125.518 257.495 125.132 256.32 124.59C255.141 124.058 254.03 123.386 253.01 122.59L251.61 121.47C251.18 121.14 250.75 120.83 250.31 120.53C248.579 119.36 246.632 118.549 244.584 118.144C242.535 117.738 240.425 117.747 238.38 118.17C236.246 118.593 234.161 119.236 232.16 120.09C231.16 120.52 230.16 121 229.16 121.51L226 123.18C221.808 125.363 217.464 127.238 213 128.79C211.88 129.18 210.75 129.55 209.62 129.88C208.49 130.21 207.35 130.55 206.21 130.88C203.93 131.47 201.62 131.96 199.3 132.4C194.643 133.299 189.885 133.551 185.16 133.15Z" fill="white"/>
<path opacity="0.5" d="M309.58 129.73C306.32 128.73 303.06 127.68 299.74 126.97C298.097 126.574 296.425 126.31 294.74 126.18C294.33 126.18 293.93 126.18 293.53 126.18C293.141 126.207 292.754 126.254 292.37 126.32C291.672 126.396 291.006 126.655 290.44 127.07C290.229 127.357 290.054 127.669 289.92 128C289.673 128.47 289.333 128.885 288.92 129.22C288.166 129.795 287.33 130.253 286.44 130.58C284.729 131.264 282.891 131.574 281.05 131.49C279.21 131.39 277.56 130.96 275.94 130.83C275.143 130.746 274.34 130.726 273.54 130.77C272.76 130.836 271.989 130.984 271.24 131.21C268.1 132.1 265.06 133.73 261.72 134.85C260.863 135.129 259.987 135.349 259.1 135.51C258.162 135.655 257.208 135.655 256.27 135.51C254.516 135.167 252.828 134.546 251.27 133.67C249.73 132.89 248.27 132.07 246.72 131.46C245.231 130.805 243.601 130.533 241.98 130.67C238.71 131.02 235.62 132.74 232.87 134.72C234.109 133.524 235.489 132.483 236.98 131.62C238.481 130.705 240.129 130.055 241.85 129.7C243.64 129.423 245.47 129.605 247.17 130.23C248.793 130.816 250.385 131.484 251.94 132.23C253.391 132.956 254.941 133.465 256.54 133.74C258.111 133.859 259.688 133.602 261.14 132.99C264.27 131.9 267.29 130.25 270.72 129.22C271.612 128.971 272.527 128.81 273.45 128.74C274.354 128.694 275.261 128.724 276.16 128.83C277.94 129 279.63 129.42 281.16 129.54C282.743 129.659 284.333 129.434 285.82 128.88C286.529 128.64 287.202 128.303 287.82 127.88C288.087 127.69 288.309 127.445 288.47 127.16C288.684 126.708 288.964 126.29 289.3 125.92C290.103 125.3 291.069 124.928 292.08 124.85C292.541 124.791 293.005 124.758 293.47 124.75C293.92 124.75 294.38 124.75 294.82 124.86C296.576 125.094 298.308 125.476 300 126C303.271 127.034 306.471 128.28 309.58 129.73Z" fill="white"/>
<path d="M148 30.1C155.63 29.94 165.12 40.1 161.76 48.76C159.62 54.28 152.08 52.97 147.88 51.06C139.84 47.41 135.48 30.36 148 30.1Z" fill="#FF7440"/>
<path d="M148.24 0.48999C153.92 0.48999 152.24 10.78 145.87 9.20001C139.5 7.62001 143.23 0.48999 148.24 0.48999Z" fill="#FF7440"/>
<path d="M234.48 10.52C231.18 7.21998 237.91 -0.660021 241.6 4.92998C245.29 10.52 239.49 15.53 234.48 10.52Z" fill="#FF7440"/>
<path d="M20.3301 76.45C22.2701 70.37 32.9901 79.88 31.9301 82.52C30.8701 85.16 18.4801 82.25 20.3301 76.45Z" fill="#FF7440"/>
<path d="M317 66.69C322.94 71.58 303 80.18 301.18 78.98C299.36 77.78 312.55 63 317 66.69Z" fill="#FF7440"/>
<path d="M92.86 36.89C96.29 32.89 99.42 42.96 94.03 43.48C88.64 44 89.43 40.85 92.86 36.89Z" fill="#FF7440"/>
<path opacity="0.7" d="M148 30.1C155.63 29.94 165.12 40.1 161.76 48.76C159.62 54.28 152.08 52.97 147.88 51.06C139.84 47.41 135.48 30.36 148 30.1Z" fill="white"/>
<path opacity="0.7" d="M20.3301 76.45C22.2701 70.37 32.9901 79.88 31.9301 82.52C30.8701 85.16 18.4801 82.25 20.3301 76.45Z" fill="white"/>
<path opacity="0.7" d="M317 66.69C322.94 71.58 303 80.18 301.18 78.98C299.36 77.78 312.55 63 317 66.69Z" fill="white"/>
<path opacity="0.6" d="M234.48 10.52C231.18 7.21998 237.91 -0.660021 241.6 4.92998C245.29 10.52 239.49 15.53 234.48 10.52Z" fill="white"/>
<path opacity="0.6" d="M92.86 36.89C96.29 32.89 99.42 42.96 94.03 43.48C88.64 44 89.43 40.85 92.86 36.89Z" fill="white"/>
<path opacity="0.5" d="M148.24 0.48999C153.92 0.48999 152.24 10.78 145.87 9.20001C139.5 7.62001 143.23 0.48999 148.24 0.48999Z" fill="white"/>
<path opacity="0.2" d="M144.15 32.74C146.91 29.01 155.63 34.65 155.63 37.81C155.63 40.97 140 38.34 144.15 32.74Z" fill="white"/>
<path opacity="0.2" d="M149.53 49.29C146.81 47.62 157.53 44.94 159.65 46.85C161.77 48.76 157.31 54 149.53 49.29Z" fill="white"/>
<path opacity="0.2" d="M144.55 6.69002C143.85 5.20002 149.88 4.55002 149.55 6.69002C149.22 8.83002 145.6 8.93002 144.55 6.69002Z" fill="white"/>
<path opacity="0.2" d="M237.25 4.93C238.02 1.98 242.4 6.23001 241.34 7.78001C240.28 9.33001 236.77 6.79 237.25 4.93Z" fill="white"/>
<path opacity="0.2" d="M94 36.89C95.76 36.63 93.09 40.58 92.3 40.32C91.51 40.06 92.26 37.15 94 36.89Z" fill="white"/>
<path opacity="0.2" d="M22.1801 75.66C23.8301 74.35 24.9301 78.87 22.7001 78.98C20.4701 79.09 20.7401 76.8 22.1801 75.66Z" fill="white"/>
<path opacity="0.2" d="M304.37 75.53C304.09 76.71 315.83 68.79 314.66 67.62C313.49 66.45 305.17 72.27 304.37 75.53Z" fill="white"/>
</svg>
