<svg width="128" height="128" viewBox="0 0 128 128" fill="none" xmlns="http://www.w3.org/2000/svg">
<path d="M80.5999 40.2998H81L80.8 40.0998L94.8 26.0998V25.7998C83 15.3998 66.6999 11.7998 51.5999 16.2998C36.4999 20.7998 24.9 32.7998 20.7 47.9998C20.9 47.8998 21.2 47.7998 21.5 47.7998C26.7 44.3998 32.9 42.3998 39.4 42.3998C41.6 42.3998 43.6999 42.5998 45.7999 42.9998C45.8999 42.8998 45.9999 42.8998 46.0999 42.8998C55.0999 32.9998 70.2999 31.7998 80.6999 40.2998H80.5999Z" fill="#EA4535"/>
<path d="M108.1 47.8002C105.8 39.3002 101 31.6002 94.3001 25.7002L80 39.9002C86 44.8002 89.5001 52.2002 89.3001 59.9002V62.4002C106.2 62.4002 106.2 87.6002 89.3001 87.6002H63.9001V107.6H63.8L63.9001 107.8H89.3001C103.9 107.9 116.8 98.5002 121.1 84.7002C125.4 70.9002 120.1 55.9002 108.1 47.8002V47.8002Z" fill="#557EBF"/>
<path d="M38.9999 107.9H65.2999V87.7001H38.9999C37.0999 87.7001 35.2999 87.3001 33.5999 86.6001L18.3999 101.2V101.4C24.3999 105.7 31.5999 108 39.0999 108L38.9999 107.9Z" fill="#36A852"/>
<path d="M40.2001 41.8999C25.3001 41.9999 12.1001 51.1999 7.30012 64.6999C2.50012 78.2999 7.30012 93.1999 19.1001 102L34.7001 87.0999C26.1001 83.3999 24.1001 72.5999 30.7001 66.2999C37.3001 59.8999 48.5001 61.8999 52.4001 70.0999L68.0001 55.1999C61.4001 46.8999 51.1001 41.9999 40.2001 42.0999V41.8999Z" fill="#F9BC15"/>
</svg>
