<svg xmlns="http://www.w3.org/2000/svg" width="256" height="25" viewBox="0 0 256 25" fill="none"><path d="M68.6865 5.83594H77.9808V8.25969H71.5301V11.2369H77.5991V13.6797H71.5301V17.0386H78.3815L78.0953 19.4624H68.6865V5.83594Z" fill="#D8A45F"/><path d="M79.422 9.50019H82.0175V10.8743C82.4119 10.289 82.8763 9.8628 83.4107 9.59562C83.9577 9.32843 84.5239 9.19484 85.1092 9.19484C86.2415 9.19484 87.0813 9.49383 87.6284 10.0918C88.1755 10.6771 88.449 11.6059 88.449 12.8782V19.4624H85.7772V13.2408C85.7772 12.541 85.6436 12.0639 85.3764 11.8094C85.1092 11.555 84.7529 11.4277 84.3076 11.4277C83.9641 11.4277 83.6651 11.4786 83.4107 11.5804C83.1689 11.6822 82.9399 11.8285 82.7236 12.0194C82.5455 12.1975 82.3928 12.4138 82.2656 12.6682C82.1511 12.91 82.0938 13.1772 82.0938 13.4698V19.4624H79.422V9.50019Z" fill="#D8A45F"/><path d="M90.7544 11.5804H89.1894V9.50019H90.7544V6.84743H93.4262V9.50019H95.7164V11.5804H93.4262V16.1798C93.4262 16.7015 93.5344 17.0577 93.7507 17.2486C93.967 17.4267 94.2469 17.5158 94.5904 17.5158C94.7685 17.5158 94.9466 17.5094 95.1248 17.4967C95.3156 17.4712 95.5001 17.4331 95.6782 17.3822L96.0599 19.3479C95.6909 19.4624 95.3283 19.5387 94.9721 19.5769C94.6286 19.6278 94.2978 19.6532 93.9797 19.6532C92.8855 19.6532 92.0712 19.3924 91.5368 18.8708C91.0152 18.3491 90.7544 17.4712 90.7544 16.2371V11.5804Z" fill="#D8A45F"/><path d="M105.739 16.3516C105.56 17.4712 105.109 18.3237 104.384 18.9089C103.671 19.4815 102.628 19.7677 101.254 19.7677C99.5996 19.7677 98.3528 19.3097 97.513 18.3937C96.686 17.4776 96.2725 16.1798 96.2725 14.5004C96.2725 13.6607 96.3934 12.9163 96.6351 12.2675C96.8769 11.6059 97.214 11.0461 97.6466 10.588C98.0919 10.13 98.6199 9.78646 99.2307 9.55745C99.8414 9.31571 100.516 9.19484 101.254 9.19484C102.78 9.19484 103.925 9.63379 104.689 10.5117C105.465 11.3896 105.853 12.5728 105.853 14.0614V15.1302H98.9444C98.9698 15.9317 99.1734 16.5615 99.5551 17.0196C99.9368 17.4649 100.509 17.6875 101.273 17.6875C102.329 17.6875 102.952 17.2422 103.143 16.3516H105.739ZM103.277 13.3744C103.277 12.6873 103.105 12.153 102.761 11.7713C102.431 11.3896 101.909 11.1987 101.196 11.1987C100.84 11.1987 100.528 11.256 100.261 11.3705C99.994 11.485 99.765 11.644 99.5742 11.8476C99.3961 12.0385 99.2561 12.2675 99.1543 12.5347C99.0525 12.7891 98.9953 13.069 98.9826 13.3744H103.277Z" fill="#D8A45F"/><path d="M107.282 9.50019H109.877V10.8934C110.208 10.3717 110.609 9.98367 111.08 9.72921C111.55 9.46202 112.047 9.32843 112.568 9.32843C112.823 9.32843 113.033 9.34116 113.198 9.3666C113.364 9.37933 113.51 9.39841 113.637 9.42386L113.313 11.8476C113.007 11.7713 112.632 11.7331 112.187 11.7331C111.894 11.7331 111.614 11.7713 111.347 11.8476C111.08 11.9112 110.838 12.0385 110.622 12.2293C110.393 12.4329 110.221 12.6619 110.106 12.9163C110.005 13.1708 109.954 13.4316 109.954 13.6988V19.4624H107.282V9.50019Z" fill="#D8A45F"/><path d="M114.705 9.50019H117.3V10.817C118.064 9.73557 119.107 9.19484 120.43 9.19484C121.817 9.19484 122.854 9.66559 123.541 10.6071C124.228 11.5486 124.572 12.84 124.572 14.4813C124.572 15.2701 124.47 15.989 124.266 16.6379C124.075 17.2867 123.789 17.8466 123.407 18.3173C123.038 18.7753 122.587 19.1316 122.052 19.3861C121.518 19.6405 120.914 19.7677 120.239 19.7677C119.743 19.7677 119.247 19.6787 118.751 19.5006C118.267 19.3224 117.809 18.9662 117.377 18.4318V23.1648H114.705V9.50019ZM117.358 14.5576C117.358 15.2065 117.408 15.7282 117.51 16.1226C117.625 16.5043 117.803 16.816 118.045 17.0577C118.299 17.2867 118.554 17.4394 118.808 17.5158C119.075 17.5794 119.342 17.6112 119.61 17.6112C119.902 17.6112 120.182 17.5539 120.449 17.4394C120.716 17.3249 120.945 17.1468 121.136 16.905C121.34 16.6506 121.499 16.3261 121.613 15.9317C121.728 15.5373 121.785 15.0602 121.785 14.5004C121.785 13.9151 121.728 13.4253 121.613 13.0309C121.512 12.6364 121.365 12.3184 121.174 12.0766C120.984 11.8222 120.755 11.644 120.487 11.5423C120.233 11.4277 119.959 11.3705 119.667 11.3705C119.336 11.3705 119.05 11.415 118.808 11.5041C118.566 11.5931 118.331 11.7331 118.102 11.9239C117.847 12.1657 117.657 12.471 117.529 12.84C117.415 13.209 117.358 13.6797 117.358 14.2523V14.5576Z" fill="#D8A45F"/><path d="M126.023 9.50019H128.618V10.8934C128.949 10.3717 129.35 9.98367 129.821 9.72921C130.291 9.46202 130.788 9.32843 131.309 9.32843C131.564 9.32843 131.774 9.34116 131.939 9.3666C132.105 9.37933 132.251 9.39841 132.378 9.42386L132.054 11.8476C131.748 11.7713 131.373 11.7331 130.928 11.7331C130.635 11.7331 130.355 11.7713 130.088 11.8476C129.821 11.9112 129.579 12.0385 129.363 12.2293C129.134 12.4329 128.962 12.6619 128.847 12.9163C128.746 13.1708 128.695 13.4316 128.695 13.6988V19.4624H126.023V9.50019Z" fill="#D8A45F"/><path d="M133.465 9.50019H136.137V19.4624H133.465V9.50019ZM133.427 5.83594H136.175V8.24061H133.427V5.83594Z" fill="#D8A45F"/><path d="M139.87 16.2943C139.959 16.8796 140.195 17.2613 140.576 17.4394C140.958 17.6175 141.416 17.7066 141.95 17.7066C142.587 17.7066 143.038 17.6303 143.305 17.4776C143.585 17.3122 143.725 17.0514 143.725 16.6951C143.725 16.4407 143.636 16.218 143.458 16.0272C143.293 15.8363 142.968 15.7027 142.485 15.6264L141.111 15.3974C139.902 15.2065 138.999 14.8821 138.401 14.424C137.815 13.9533 137.523 13.2472 137.523 12.3056C137.523 11.8222 137.625 11.3896 137.828 11.0079C138.044 10.6262 138.343 10.3018 138.725 10.0346C139.107 9.76738 139.558 9.56381 140.08 9.42386C140.614 9.27118 141.2 9.19484 141.836 9.19484C142.625 9.19484 143.286 9.27754 143.821 9.44294C144.355 9.59562 144.788 9.80555 145.118 10.0727C145.462 10.3399 145.716 10.658 145.882 11.027C146.06 11.3959 146.187 11.7904 146.264 12.2102L143.878 12.5156C143.763 12.0575 143.56 11.7204 143.267 11.5041C142.987 11.2878 142.529 11.1796 141.893 11.1796C141.537 11.1796 141.238 11.2115 140.996 11.2751C140.767 11.326 140.583 11.3959 140.443 11.485C140.315 11.5741 140.22 11.6758 140.156 11.7904C140.106 11.9049 140.08 12.013 140.08 12.1148C140.08 12.4329 140.175 12.6683 140.366 12.8209C140.57 12.9609 140.958 13.0818 141.531 13.1835L142.79 13.3935C143.49 13.508 144.069 13.6543 144.527 13.8324C144.985 14.0105 145.347 14.2332 145.615 14.5004C145.895 14.7548 146.085 15.0602 146.187 15.4164C146.302 15.7727 146.359 16.1862 146.359 16.6569C146.359 17.5985 146.003 18.3555 145.29 18.928C144.578 19.4878 143.477 19.7677 141.989 19.7677C141.391 19.7677 140.818 19.7105 140.271 19.596C139.737 19.4942 139.253 19.3097 138.82 19.0425C138.401 18.7753 138.051 18.4191 137.771 17.9738C137.504 17.5285 137.351 16.9687 137.313 16.2943H139.87Z" fill="#D8A45F"/><path d="M156.557 16.3516C156.379 17.4712 155.927 18.3237 155.202 18.9089C154.489 19.4815 153.446 19.7677 152.072 19.7677C150.418 19.7677 149.171 19.3097 148.331 18.3937C147.504 17.4776 147.091 16.1798 147.091 14.5004C147.091 13.6607 147.212 12.9163 147.453 12.2675C147.695 11.6059 148.032 11.0461 148.465 10.588C148.91 10.13 149.438 9.78646 150.049 9.55745C150.66 9.31571 151.334 9.19484 152.072 9.19484C153.599 9.19484 154.744 9.63379 155.507 10.5117C156.283 11.3896 156.671 12.5728 156.671 14.0614V15.1302H149.763C149.788 15.9317 149.992 16.5615 150.373 17.0196C150.755 17.4649 151.328 17.6875 152.091 17.6875C153.147 17.6875 153.77 17.2422 153.961 16.3516H156.557ZM154.095 13.3744C154.095 12.6873 153.923 12.153 153.58 11.7713C153.249 11.3896 152.727 11.1987 152.015 11.1987C151.658 11.1987 151.347 11.256 151.079 11.3705C150.812 11.485 150.583 11.644 150.392 11.8476C150.214 12.0385 150.074 12.2675 149.973 12.5347C149.871 12.7891 149.813 13.069 149.801 13.3744H154.095Z" fill="#D8A45F"/><path d="M160.784 5.83594H163.991L166.185 15.3019L168.418 5.91228H171.434L173.762 15.3019L175.823 5.83594H178.877L175.174 19.4624H172.407L169.869 9.38569L167.407 19.4624H164.716L160.784 5.83594Z" fill="#D8A45F"/><path d="M183.418 19.7677C181.815 19.7677 180.575 19.3097 179.697 18.3937C178.819 17.4776 178.38 16.1671 178.38 14.4622C178.38 13.6479 178.494 12.9163 178.723 12.2675C178.965 11.6059 179.302 11.0524 179.735 10.6071C180.18 10.1491 180.715 9.79919 181.338 9.55745C181.961 9.31571 182.655 9.19484 183.418 9.19484C184.194 9.19484 184.894 9.31571 185.518 9.55745C186.141 9.79919 186.669 10.1491 187.102 10.6071C187.547 11.0524 187.884 11.6059 188.113 12.2675C188.342 12.9163 188.457 13.6479 188.457 14.4622C188.457 15.2892 188.336 16.0335 188.094 16.6951C187.865 17.344 187.528 17.8974 187.083 18.3555C186.65 18.8135 186.122 19.1634 185.498 19.4051C184.875 19.6469 184.182 19.7677 183.418 19.7677ZM183.418 17.6303C184.182 17.6303 184.748 17.3567 185.117 16.8096C185.498 16.2625 185.689 15.4801 185.689 14.4622C185.689 13.4444 185.498 12.6682 185.117 12.1339C184.748 11.5995 184.182 11.3323 183.418 11.3323C182.655 11.3323 182.082 11.5995 181.701 12.1339C181.332 12.6682 181.147 13.4444 181.147 14.4622C181.147 15.4928 181.332 16.2816 181.701 16.8287C182.07 17.3631 182.642 17.6303 183.418 17.6303Z" fill="#D8A45F"/><path d="M189.911 9.50019H192.507V10.8934C192.837 10.3717 193.238 9.98367 193.709 9.72921C194.18 9.46202 194.676 9.32843 195.198 9.32843C195.452 9.32843 195.662 9.34116 195.827 9.3666C195.993 9.37933 196.139 9.39841 196.266 9.42386L195.942 11.8476C195.636 11.7713 195.261 11.7331 194.816 11.7331C194.523 11.7331 194.243 11.7713 193.976 11.8476C193.709 11.9112 193.467 12.0385 193.251 12.2293C193.022 12.4329 192.85 12.6619 192.736 12.9163C192.634 13.1708 192.583 13.4316 192.583 13.6988V19.4624H189.911V9.50019Z" fill="#D8A45F"/><path d="M203.758 18.1455C202.995 19.227 201.964 19.7677 200.666 19.7677C199.267 19.7677 198.223 19.297 197.536 18.3555C196.849 17.414 196.506 16.1099 196.506 14.4431C196.506 13.667 196.601 12.9609 196.792 12.3247C196.996 11.6758 197.282 11.1224 197.651 10.6644C198.02 10.1936 198.472 9.83099 199.006 9.57653C199.54 9.32207 200.145 9.19484 200.819 9.19484C201.315 9.19484 201.805 9.2839 202.289 9.46202C202.785 9.64015 203.249 9.98367 203.682 10.4926V5.83594H206.354V19.4624H203.758V18.1455ZM203.701 14.3668C203.701 13.7306 203.644 13.2217 203.529 12.84C203.427 12.4583 203.255 12.1466 203.014 11.9049C202.785 11.6758 202.53 11.5295 202.25 11.4659C201.983 11.3896 201.716 11.3514 201.449 11.3514C201.156 11.3514 200.876 11.4087 200.609 11.5232C200.355 11.6377 200.126 11.8158 199.922 12.0575C199.731 12.2993 199.579 12.6174 199.464 13.0118C199.349 13.4062 199.292 13.8769 199.292 14.424C199.292 15.022 199.343 15.5246 199.445 15.9317C199.559 16.3261 199.712 16.6506 199.903 16.905C200.094 17.1468 200.316 17.3249 200.571 17.4394C200.825 17.5412 201.099 17.5921 201.392 17.5921C202.028 17.5921 202.549 17.4076 202.956 17.0386C203.211 16.7842 203.395 16.4788 203.51 16.1226C203.637 15.7536 203.701 15.2828 203.701 14.7103V14.3668Z" fill="#D8A45F"/><path d="M208.359 5.83594H213.225C214.269 5.83594 215.127 5.95681 215.802 6.19855C216.489 6.42756 217.03 6.73928 217.424 7.13369C217.831 7.51539 218.111 7.96706 218.264 8.48871C218.429 8.99763 218.512 9.532 218.512 10.0918C218.512 10.6898 218.429 11.2623 218.264 11.8094C218.111 12.3565 217.831 12.84 217.424 13.2599C217.03 13.667 216.495 13.9915 215.821 14.2332C215.159 14.4749 214.32 14.5958 213.302 14.5958H211.164V19.4624H208.359V5.83594ZM213.206 12.2293C213.703 12.2293 214.11 12.1784 214.428 12.0766C214.759 11.9748 215.019 11.8349 215.21 11.6568C215.401 11.4786 215.528 11.2623 215.592 11.0079C215.668 10.7407 215.706 10.4544 215.706 10.1491C215.706 9.831 215.668 9.55109 215.592 9.30935C215.516 9.06761 215.382 8.86404 215.191 8.69864C215 8.53324 214.739 8.40601 214.409 8.31694C214.091 8.22788 213.683 8.18335 213.187 8.18335H211.164V12.2293H213.206Z" fill="#D8A45F"/><path d="M219.597 9.50019H222.193V10.8934C222.524 10.3717 222.925 9.98367 223.395 9.72921C223.866 9.46202 224.362 9.32843 224.884 9.32843C225.138 9.32843 225.348 9.34116 225.514 9.3666C225.679 9.37933 225.825 9.39841 225.953 9.42386L225.628 11.8476C225.323 11.7713 224.948 11.7331 224.502 11.7331C224.21 11.7331 223.93 11.7713 223.662 11.8476C223.395 11.9112 223.154 12.0385 222.937 12.2293C222.708 12.4329 222.536 12.6619 222.422 12.9163C222.32 13.1708 222.269 13.4316 222.269 13.6988V19.4624H219.597V9.50019Z" fill="#D8A45F"/><path d="M235.658 16.3516C235.48 17.4712 235.028 18.3237 234.303 18.9089C233.591 19.4815 232.547 19.7677 231.173 19.7677C229.519 19.7677 228.272 19.3097 227.433 18.3937C226.606 17.4776 226.192 16.1798 226.192 14.5004C226.192 13.6607 226.313 12.9163 226.555 12.2675C226.797 11.6059 227.134 11.0461 227.566 10.588C228.012 10.13 228.54 9.78646 229.15 9.55745C229.761 9.31571 230.435 9.19484 231.173 9.19484C232.7 9.19484 233.845 9.63379 234.609 10.5117C235.385 11.3896 235.773 12.5728 235.773 14.0614V15.1302H228.864C228.89 15.9317 229.093 16.5615 229.475 17.0196C229.857 17.4649 230.429 17.6875 231.192 17.6875C232.248 17.6875 232.872 17.2422 233.063 16.3516H235.658ZM233.196 13.3744C233.196 12.6873 233.025 12.153 232.681 11.7713C232.35 11.3896 231.829 11.1987 231.116 11.1987C230.76 11.1987 230.448 11.256 230.181 11.3705C229.914 11.485 229.685 11.644 229.494 11.8476C229.316 12.0385 229.176 12.2675 229.074 12.5347C228.972 12.7891 228.915 13.069 228.902 13.3744H233.196Z" fill="#D8A45F"/><path d="M239.129 16.2943C239.218 16.8796 239.454 17.2613 239.835 17.4394C240.217 17.6175 240.675 17.7066 241.209 17.7066C241.846 17.7066 242.297 17.6303 242.564 17.4776C242.844 17.3122 242.984 17.0514 242.984 16.6951C242.984 16.4407 242.895 16.218 242.717 16.0272C242.552 15.8363 242.227 15.7027 241.744 15.6264L240.37 15.3974C239.161 15.2065 238.258 14.8821 237.66 14.424C237.074 13.9533 236.782 13.2472 236.782 12.3056C236.782 11.8222 236.883 11.3896 237.087 11.0079C237.303 10.6262 237.602 10.3018 237.984 10.0346C238.366 9.76738 238.817 9.56381 239.339 9.42386C239.873 9.27118 240.459 9.19484 241.095 9.19484C241.884 9.19484 242.545 9.27754 243.08 9.44294C243.614 9.59562 244.047 9.80555 244.377 10.0727C244.721 10.3399 244.975 10.658 245.141 11.027C245.319 11.3959 245.446 11.7904 245.522 12.2102L243.137 12.5156C243.022 12.0575 242.819 11.7204 242.526 11.5041C242.246 11.2878 241.788 11.1796 241.152 11.1796C240.796 11.1796 240.497 11.2115 240.255 11.2751C240.026 11.326 239.842 11.3959 239.702 11.485C239.574 11.5741 239.479 11.6758 239.415 11.7904C239.365 11.9049 239.339 12.013 239.339 12.1148C239.339 12.4329 239.434 12.6683 239.625 12.8209C239.829 12.9609 240.217 13.0818 240.789 13.1835L242.049 13.3935C242.749 13.508 243.328 13.6543 243.786 13.8324C244.244 14.0105 244.606 14.2332 244.874 14.5004C245.154 14.7548 245.344 15.0602 245.446 15.4164C245.561 15.7727 245.618 16.1862 245.618 16.6569C245.618 17.5985 245.262 18.3555 244.549 18.928C243.837 19.4878 242.736 19.7677 241.248 19.7677C240.65 19.7677 240.077 19.7105 239.53 19.596C238.996 19.4942 238.512 19.3097 238.079 19.0425C237.66 18.7753 237.31 18.4191 237.03 17.9738C236.763 17.5285 236.61 16.9687 236.572 16.2943H239.129Z" fill="#D8A45F"/><path d="M248.807 16.2943C248.896 16.8796 249.132 17.2613 249.513 17.4394C249.895 17.6175 250.353 17.7066 250.887 17.7066C251.524 17.7066 251.975 17.6303 252.242 17.4776C252.522 17.3122 252.662 17.0514 252.662 16.6951C252.662 16.4407 252.573 16.218 252.395 16.0272C252.23 15.8363 251.905 15.7027 251.422 15.6264L250.048 15.3974C248.839 15.2065 247.936 14.8821 247.338 14.424C246.752 13.9533 246.46 13.2472 246.46 12.3056C246.46 11.8222 246.562 11.3896 246.765 11.0079C246.981 10.6262 247.28 10.3018 247.662 10.0346C248.044 9.76738 248.495 9.56381 249.017 9.42386C249.551 9.27118 250.137 9.19484 250.773 9.19484C251.562 9.19484 252.223 9.27754 252.758 9.44294C253.292 9.59562 253.725 9.80555 254.055 10.0727C254.399 10.3399 254.653 10.658 254.819 11.027C254.997 11.3959 255.124 11.7904 255.201 12.2102L252.815 12.5156C252.7 12.0575 252.497 11.7204 252.204 11.5041C251.924 11.2878 251.466 11.1796 250.83 11.1796C250.474 11.1796 250.175 11.2115 249.933 11.2751C249.704 11.326 249.52 11.3959 249.38 11.485C249.252 11.5741 249.157 11.6758 249.093 11.7904C249.043 11.9049 249.017 12.013 249.017 12.1148C249.017 12.4329 249.112 12.6683 249.303 12.8209C249.507 12.9609 249.895 13.0818 250.468 13.1835L251.727 13.3935C252.427 13.508 253.006 13.6543 253.464 13.8324C253.922 14.0105 254.284 14.2332 254.552 14.5004C254.832 14.7548 255.022 15.0602 255.124 15.4164C255.239 15.7727 255.296 16.1862 255.296 16.6569C255.296 17.5985 254.94 18.3555 254.227 18.928C253.515 19.4878 252.414 19.7677 250.926 19.7677C250.328 19.7677 249.755 19.7105 249.208 19.596C248.674 19.4942 248.19 19.3097 247.757 19.0425C247.338 18.7753 246.988 18.4191 246.708 17.9738C246.441 17.5285 246.288 16.9687 246.25 16.2943H248.807Z" fill="#D8A45F"/><path d="M28.0869 6.91406H31.0825L34.2044 16.0271L37.4165 6.91406H40.3038L35.4676 19.7987H32.9232L28.0869 6.91406Z" fill="#F5F2F1"/><path d="M41.265 6.91406H43.9538V19.7987H41.265V6.91406Z" fill="#F5F2F1"/><path d="M46.0457 6.91406H50.6474C51.6339 6.91406 52.4459 7.02835 53.0835 7.25693C53.7332 7.47348 54.2445 7.76822 54.6174 8.14117C55.0024 8.50208 55.2671 8.92916 55.4114 9.42241C55.5678 9.90363 55.646 10.4089 55.646 10.9382C55.646 11.5037 55.5678 12.045 55.4114 12.5624C55.2671 13.0797 55.0024 13.5368 54.6174 13.9338C54.2445 14.3188 53.7392 14.6256 53.1016 14.8542C52.476 15.0827 51.682 15.197 50.7196 15.197H48.6984V19.7987H46.0457V6.91406ZM50.6293 12.9594C51.0985 12.9594 51.4835 12.9112 51.7843 12.815C52.097 12.7188 52.3437 12.5864 52.5241 12.418C52.7046 12.2496 52.8249 12.045 52.885 11.8044C52.9572 11.5518 52.9933 11.2811 52.9933 10.9924C52.9933 10.6916 52.9572 10.427 52.885 10.1984C52.8129 9.9698 52.6865 9.77731 52.5061 9.62091C52.3256 9.46452 52.079 9.34421 51.7662 9.26C51.4655 9.17579 51.0805 9.13368 50.6113 9.13368H48.6984V12.9594H50.6293Z" fill="#F5F2F1"/><path fill-rule="evenodd" clip-rule="evenodd" d="M61.9135 23.1633L61.9135 0.882812L62.4185 0.882812L62.4185 23.1633L61.9135 23.1633Z" fill="#F5F2F1"/><path d="M12.6461 0.882812C6.09771 0.882812 0.783691 6.22353 0.783691 12.8048C0.783691 19.3861 6.09771 24.7268 12.6461 24.7268C19.1945 24.7268 24.5085 19.3861 24.5085 12.8048C24.5085 6.22353 19.1945 0.882812 12.6461 0.882812ZM1.97621 12.8048C1.97621 11.2489 2.31095 9.777 2.89674 8.43131L7.98063 22.4349C4.44492 20.7108 1.97621 17.0522 1.97621 12.8048ZM12.6461 23.5283C11.6 23.5283 10.5958 23.3811 9.63341 23.0867L12.8344 13.73L16.119 22.7503C16.1399 22.7924 16.1609 22.8555 16.2027 22.8975C15.073 23.318 13.9014 23.5283 12.6461 23.5283ZM14.1106 7.77949C14.7591 7.73744 15.324 7.67436 15.324 7.67436C15.8889 7.61128 15.8261 6.74919 15.2612 6.79125C15.2612 6.79125 13.5248 6.9174 12.4159 6.9174C11.3699 6.9174 9.61249 6.79125 9.61249 6.79125C9.04761 6.74919 8.96393 7.6323 9.54972 7.67436C9.54972 7.67436 10.0937 7.73744 10.6586 7.77949L12.3113 12.3633L9.98907 19.3861L6.11863 7.77949C6.76719 7.73744 7.33206 7.67436 7.33206 7.67436C7.89694 7.61128 7.83418 6.74919 7.2693 6.79125C7.2693 6.79125 5.53283 6.9174 4.424 6.9174C4.21479 6.9174 3.98465 6.9174 3.7336 6.89638C5.63744 3.99473 8.92208 2.06029 12.6461 2.06029C15.4286 2.06029 17.9601 3.13264 19.843 4.87784C19.8012 4.87784 19.7593 4.87784 19.6966 4.87784C18.6505 4.87784 17.8973 5.803 17.8973 6.79125C17.8973 7.67436 18.3994 8.43131 18.9434 9.31442C19.3409 10.0293 19.8221 10.9545 19.8221 12.2791C19.8221 13.2043 19.5501 14.3608 19.0062 15.7485L17.9392 19.323L14.1106 7.77949ZM18.0229 22.0775L21.2866 12.6156C21.8933 11.0806 22.1025 9.86111 22.1025 8.76773C22.1025 8.36823 22.0816 8.01078 22.0398 7.67436C22.8766 9.20929 23.3369 10.9545 23.3369 12.8258C23.316 16.7578 21.182 20.2271 18.0229 22.0775Z" fill="#F5F2F1"/></svg>